<svg id="svg" version="1.1" xmlns="http://www.w3.org/2000/svg" xmlns:xlink="http://www.w3.org/1999/xlink" width="400" height="308" viewBox="0, 0, 400,308"><g id="svgg"><path id="path0" d="M258.398 29.778 C 254.034 30.885,251.268 34.645,251.338 39.375 C 251.366 41.208,251.511 41.719,252.624 43.914 C 255.953 50.473,265.602 49.411,268.025 42.219 C 270.244 35.633,264.514 28.228,258.398 29.778 M335.312 33.567 C 335.019 33.752,335.287 33.827,336.127 33.794 C 336.816 33.766,337.316 33.640,337.238 33.513 C 337.046 33.197,335.844 33.230,335.312 33.567 M305.625 34.772 C 305.418 35.562,306.301 35.642,306.563 34.857 C 306.644 34.614,306.566 34.515,306.384 34.628 C 306.207 34.737,306.005 34.656,305.935 34.447 C 305.866 34.239,305.726 34.385,305.625 34.772 M262.472 36.263 C 264.617 37.281,264.979 40.499,263.124 42.059 C 261.869 43.116,260.959 43.289,259.804 42.691 C 255.666 40.552,258.273 34.270,262.472 36.263 M315.259 38.453 C 315.272 39.065,315.787 39.490,315.962 39.034 C 316.060 38.780,315.941 38.495,315.697 38.402 C 315.453 38.308,315.256 38.332,315.259 38.453 M324.275 38.469 C 324.067 38.597,324.020 38.861,324.164 39.094 C 324.358 39.407,324.459 39.378,324.618 38.965 C 324.864 38.323,324.758 38.170,324.275 38.469 M342.994 39.396 C 343.002 39.756,343.440 40.213,343.861 40.301 C 344.100 40.351,344.228 40.171,344.169 39.868 C 344.075 39.385,342.984 38.946,342.994 39.396 M344.177 43.371 C 344.107 44.104,344.216 44.744,344.449 44.961 C 344.758 45.250,344.837 45.084,344.833 44.157 C 344.827 42.445,344.323 41.842,344.177 43.371 M344.566 53.981 C 344.546 54.264,344.450 54.749,344.353 55.060 C 344.185 55.595,344.194 55.595,344.528 55.075 C 344.721 54.773,344.817 54.288,344.741 53.996 C 344.615 53.519,344.598 53.518,344.566 53.981 M343.606 57.128 C 343.606 57.383,343.744 57.676,343.914 57.781 C 344.083 57.886,344.222 57.764,344.222 57.509 C 344.222 57.255,344.083 56.961,343.914 56.857 C 343.744 56.752,343.606 56.874,343.606 57.128 M335.904 66.715 C 335.695 66.967,335.366 67.085,335.173 66.978 C 334.965 66.861,334.978 66.949,335.206 67.195 C 335.524 67.538,335.698 67.493,336.220 66.932 C 336.566 66.560,336.723 66.256,336.567 66.256 C 336.412 66.256,336.114 66.462,335.904 66.715 M327.006 73.064 C 326.456 73.509,326.400 73.652,326.776 73.652 C 327.049 73.652,327.273 73.523,327.273 73.366 C 327.273 73.209,327.515 73.033,327.812 72.974 C 328.109 72.915,328.212 72.779,328.042 72.671 C 327.871 72.564,327.405 72.741,327.006 73.064 M311.787 81.877 C 311.491 81.954,311.248 82.146,311.248 82.303 C 311.248 82.738,311.743 82.644,312.173 82.126 C 312.384 81.872,312.505 81.680,312.441 81.700 C 312.378 81.720,312.084 81.799,311.787 81.877 M306.626 84.643 C 306.626 84.869,306.749 85.054,306.901 85.054 C 307.052 85.054,307.247 84.869,307.334 84.643 C 307.420 84.417,307.297 84.232,307.058 84.232 C 306.820 84.232,306.626 84.417,306.626 84.643 M336.079 234.308 C 335.219 235.212,333.336 237.188,331.895 238.700 C 330.455 240.212,328.097 242.832,326.656 244.523 C 323.756 247.926,318.266 253.491,316.161 255.162 C 315.413 255.755,314.175 256.800,313.410 257.485 C 312.645 258.169,311.464 259.135,310.786 259.631 C 310.108 260.127,309.385 260.676,309.179 260.852 C 308.313 261.589,307.866 261.905,304.885 263.878 C 303.165 265.016,301.617 265.948,301.444 265.948 C 301.271 265.948,301.084 266.065,301.027 266.209 C 300.822 266.731,292.651 270.485,290.293 271.140 C 289.700 271.305,288.521 271.661,287.673 271.931 C 286.826 272.201,285.774 272.421,285.336 272.421 C 284.899 272.420,284.437 272.523,284.311 272.650 C 284.017 272.946,280.372 273.590,277.178 273.910 C 275.812 274.047,274.528 274.262,274.323 274.388 C 273.345 274.993,266.067 275.304,248.844 275.478 C 235.190 275.615,229.752 275.771,228.970 276.046 C 227.437 276.586,165.520 276.597,163.942 276.057 C 163.307 275.840,159.707 275.597,155.162 275.464 C 146.331 275.205,139.834 274.762,139.239 274.378 C 139.013 274.233,137.373 274.016,135.593 273.896 C 133.814 273.776,130.832 273.459,128.968 273.192 C 127.103 272.925,124.467 272.601,123.109 272.472 C 121.752 272.344,120.463 272.129,120.246 271.994 C 120.029 271.860,118.851 271.637,117.630 271.497 C 116.408 271.358,114.507 271.018,113.405 270.741 C 112.304 270.464,110.847 270.115,110.169 269.966 C 107.906 269.468,106.166 268.947,105.871 268.679 C 105.710 268.532,105.294 268.408,104.946 268.403 C 104.254 268.392,101.186 267.391,100.867 267.071 C 100.757 266.962,100.448 266.871,100.180 266.870 C 99.911 266.869,99.295 266.661,98.809 266.408 C 98.324 266.155,97.785 265.948,97.612 265.948 C 97.263 265.948,88.301 261.486,86.595 260.463 C 86.002 260.107,84.927 259.507,84.206 259.129 C 83.486 258.752,82.897 258.328,82.897 258.189 C 82.897 258.049,82.760 257.935,82.592 257.935 C 82.158 257.935,74.976 252.755,72.466 250.632 C 71.304 249.649,70.086 248.636,69.758 248.382 C 67.944 246.974,65.213 244.601,63.213 242.692 C 60.551 240.152,60.833 240.408,58.095 238.057 C 56.912 237.041,55.469 235.759,54.889 235.208 C 53.829 234.201,50.847 233.689,50.847 234.515 C 50.847 234.684,50.232 234.823,49.479 234.823 C 48.726 234.823,48.023 234.964,47.917 235.136 C 47.810 235.308,47.594 235.369,47.436 235.272 C 47.279 235.174,47.149 235.241,47.149 235.421 C 47.149 235.600,46.602 235.747,45.932 235.747 C 45.176 235.747,44.618 235.921,44.459 236.205 C 44.298 236.492,43.669 236.682,42.761 236.716 C 41.968 236.746,41.391 236.887,41.479 237.029 C 41.567 237.172,41.072 237.288,40.378 237.288 C 39.542 237.288,39.058 237.444,38.940 237.750 C 38.825 238.052,38.345 238.213,37.563 238.213 C 36.903 238.213,36.364 238.321,36.364 238.454 C 36.364 238.586,35.993 238.725,35.539 238.763 C 35.086 238.800,34.497 239.028,34.230 239.268 C 33.963 239.509,33.259 239.751,32.666 239.806 C 32.072 239.862,31.613 240.054,31.644 240.234 C 31.676 240.413,31.121 240.593,30.412 240.634 C 29.702 240.675,29.076 240.841,29.019 241.002 C 28.963 241.163,28.507 241.294,28.008 241.294 C 27.485 241.294,27.024 241.490,26.922 241.757 C 26.813 242.040,26.346 242.219,25.717 242.219 C 25.152 242.219,24.604 242.357,24.499 242.527 C 24.394 242.696,23.897 242.835,23.393 242.835 C 22.863 242.835,22.402 243.030,22.299 243.297 C 22.202 243.552,21.786 243.760,21.375 243.760 C 20.964 243.760,20.548 243.968,20.450 244.222 C 20.341 244.507,19.873 244.684,19.227 244.684 C 18.652 244.684,18.182 244.823,18.182 244.992 C 18.182 245.162,17.850 245.300,17.444 245.300 C 17.039 245.300,16.627 245.508,16.530 245.763 C 16.432 246.017,16.186 246.225,15.984 246.225 C 15.401 246.225,13.251 247.242,13.251 247.517 C 13.251 247.654,12.969 247.766,12.625 247.766 C 12.281 247.766,11.919 247.974,11.822 248.228 C 11.724 248.482,11.451 248.690,11.215 248.690 C 10.979 248.690,10.786 248.829,10.786 248.998 C 10.786 249.168,10.504 249.307,10.160 249.307 C 9.816 249.307,9.454 249.515,9.356 249.769 C 9.259 250.023,8.951 250.233,8.673 250.236 C 8.075 250.242,6.163 251.854,6.163 252.352 C 6.163 252.541,5.867 252.696,5.505 252.696 C 5.143 252.696,4.526 253.043,4.133 253.467 C 3.741 253.891,3.309 254.239,3.173 254.241 C 2.955 254.244,1.570 256.120,1.271 256.818 C 1.208 256.966,0.896 257.348,0.578 257.666 C -0.314 258.558,-0.307 272.112,0.586 273.005 C 0.908 273.327,1.264 273.882,1.377 274.238 C 1.490 274.593,1.712 274.884,1.870 274.884 C 2.028 274.884,2.157 275.033,2.157 275.215 C 2.157 275.641,2.941 276.425,3.368 276.425 C 3.549 276.425,3.698 276.633,3.698 276.888 C 3.698 277.142,3.906 277.350,4.160 277.350 C 4.414 277.350,4.622 277.479,4.622 277.637 C 4.622 277.795,4.910 278.016,5.262 278.128 C 5.614 278.239,6.389 278.803,6.984 279.381 C 7.579 279.959,8.316 280.431,8.622 280.431 C 8.928 280.431,9.259 280.639,9.356 280.894 C 9.454 281.148,9.739 281.356,9.990 281.356 C 10.241 281.356,10.820 281.703,11.277 282.126 C 11.734 282.550,12.351 282.897,12.647 282.897 C 12.943 282.897,13.265 283.105,13.363 283.359 C 13.460 283.613,13.822 283.821,14.166 283.821 C 14.510 283.821,14.792 283.960,14.792 284.129 C 14.792 284.299,15.208 284.438,15.716 284.438 C 16.283 284.438,16.611 284.584,16.564 284.815 C 16.522 285.023,16.821 285.244,17.230 285.306 C 17.639 285.368,18.169 285.613,18.408 285.852 C 18.647 286.091,19.179 286.287,19.591 286.287 C 20.002 286.287,20.339 286.425,20.339 286.595 C 20.339 286.764,20.755 286.903,21.263 286.903 C 21.880 286.903,22.188 287.057,22.188 287.365 C 22.188 287.700,22.532 287.827,23.439 287.827 C 24.194 287.827,24.614 287.949,24.499 288.136 C 24.384 288.322,24.804 288.444,25.560 288.444 C 26.466 288.444,26.810 288.571,26.810 288.906 C 26.810 289.238,27.149 289.368,28.010 289.368 C 28.792 289.368,29.272 289.529,29.387 289.831 C 29.499 290.121,29.970 290.293,30.653 290.293 C 31.251 290.293,31.741 290.431,31.741 290.601 C 31.741 290.770,32.147 290.909,32.644 290.909 C 33.140 290.909,33.754 291.117,34.008 291.371 C 34.263 291.626,34.897 291.834,35.417 291.834 C 35.938 291.834,36.364 291.972,36.364 292.142 C 36.364 292.311,36.918 292.450,37.596 292.450 C 38.487 292.450,38.829 292.578,38.829 292.912 C 38.829 293.253,39.184 293.374,40.178 293.374 C 41.001 293.374,41.677 293.555,41.911 293.837 C 42.133 294.104,42.805 294.299,43.507 294.299 C 44.238 294.299,44.645 294.422,44.530 294.607 C 44.414 294.795,44.874 294.915,45.707 294.915 C 46.546 294.915,47.222 295.094,47.458 295.378 C 47.676 295.641,48.348 295.840,49.018 295.840 C 49.665 295.840,50.280 295.978,50.385 296.148 C 50.490 296.317,51.335 296.456,52.262 296.456 C 53.477 296.456,53.998 296.585,54.126 296.918 C 54.253 297.249,54.770 297.381,55.943 297.381 C 56.990 297.381,57.750 297.548,58.045 297.843 C 58.315 298.113,59.068 298.305,59.855 298.305 C 60.596 298.305,61.334 298.429,61.495 298.581 C 61.656 298.733,62.749 298.914,63.925 298.984 C 65.202 299.061,66.112 299.260,66.185 299.479 C 66.261 299.708,66.994 299.846,68.130 299.846 C 69.141 299.846,69.954 299.983,69.954 300.154 C 69.954 300.333,70.970 300.462,72.386 300.462 C 74.264 300.462,74.859 300.568,74.996 300.924 C 75.128 301.269,75.678 301.387,77.160 301.387 C 78.416 301.387,79.192 301.521,79.269 301.751 C 79.346 301.984,80.443 302.165,82.299 302.252 C 83.899 302.327,85.278 302.497,85.363 302.630 C 85.448 302.762,86.787 302.918,88.340 302.976 C 89.992 303.038,91.142 303.209,91.113 303.390 C 91.084 303.567,92.102 303.737,93.514 303.789 C 94.862 303.839,96.113 304.003,96.293 304.153 C 96.474 304.303,98.249 304.458,100.237 304.498 C 103.010 304.553,103.852 304.666,103.852 304.982 C 103.852 305.290,104.463 305.393,106.292 305.393 C 107.963 305.393,108.776 305.514,108.873 305.778 C 108.986 306.086,109.096 306.086,109.422 305.778 C 109.966 305.265,110.575 305.292,111.138 305.855 C 111.497 306.214,112.417 306.317,115.251 306.317 C 117.258 306.317,118.947 306.438,119.004 306.586 C 119.060 306.734,121.186 306.908,123.729 306.972 C 127.371 307.063,128.428 307.186,128.712 307.550 C 129.030 307.959,137.319 308.012,200.000 308.012 C 262.681 308.012,270.970 307.959,271.288 307.550 C 271.572 307.186,272.629 307.063,276.271 306.972 C 278.814 306.908,280.940 306.734,280.996 306.586 C 281.053 306.438,282.671 306.317,284.592 306.317 C 288.152 306.317,289.190 306.161,288.886 305.669 C 288.792 305.517,289.140 305.393,289.658 305.393 C 290.177 305.393,290.601 305.532,290.601 305.701 C 290.601 305.871,290.817 306.009,291.081 306.009 C 291.346 306.009,291.476 305.871,291.371 305.701 C 291.250 305.505,292.087 305.393,293.664 305.393 C 295.530 305.393,296.148 305.291,296.148 304.982 C 296.148 304.666,296.990 304.554,299.769 304.500 C 301.760 304.461,303.522 304.300,303.683 304.141 C 303.844 303.982,305.029 303.852,306.317 303.852 C 307.606 303.852,308.807 303.704,308.988 303.523 C 309.169 303.342,310.410 303.124,311.746 303.038 C 313.082 302.951,314.453 302.758,314.792 302.607 C 315.131 302.457,316.448 302.266,317.720 302.184 C 318.991 302.102,320.276 302.020,320.577 302.001 C 320.877 301.981,321.042 301.835,320.944 301.676 C 320.839 301.507,321.608 301.387,322.796 301.387 C 324.317 301.387,324.871 301.271,325.004 300.924 C 325.141 300.568,325.736 300.462,327.614 300.462 C 329.030 300.462,330.046 300.333,330.046 300.154 C 330.046 299.983,330.868 299.846,331.895 299.846 C 333.198 299.846,333.744 299.729,333.744 299.449 C 333.744 299.167,334.435 299.026,336.129 298.963 C 337.440 298.914,338.587 298.755,338.677 298.609 C 338.767 298.464,339.532 298.301,340.376 298.248 C 341.401 298.183,341.885 298.023,341.834 297.766 C 341.778 297.489,342.322 297.381,343.760 297.381 C 345.335 297.381,345.763 297.282,345.763 296.918 C 345.763 296.559,346.174 296.456,347.612 296.456 C 348.629 296.456,349.461 296.325,349.461 296.165 C 349.461 296.005,350.119 295.831,350.924 295.780 C 351.894 295.717,352.362 295.556,352.311 295.300 C 352.257 295.030,352.738 294.915,353.929 294.915 C 354.861 294.915,355.624 294.777,355.624 294.607 C 355.624 294.438,356.114 294.299,356.712 294.299 C 357.395 294.299,357.867 294.127,357.978 293.837 C 358.102 293.513,358.607 293.374,359.663 293.374 C 360.798 293.374,361.171 293.260,361.171 292.912 C 361.171 292.578,361.513 292.450,362.404 292.450 C 363.082 292.450,363.636 292.320,363.636 292.160 C 363.636 292.001,364.156 291.828,364.792 291.775 C 365.428 291.723,365.925 291.541,365.897 291.371 C 365.869 291.202,366.335 291.027,366.932 290.984 C 367.529 290.940,368.176 290.805,368.369 290.683 C 368.563 290.562,369.068 290.418,369.492 290.364 C 369.915 290.309,370.421 290.056,370.616 289.800 C 370.894 289.435,371.005 289.422,371.131 289.737 C 371.253 290.041,371.298 290.045,371.316 289.753 C 371.330 289.536,371.744 289.368,372.265 289.368 C 372.881 289.368,373.190 289.214,373.190 288.906 C 373.190 288.572,373.532 288.444,374.422 288.444 C 375.100 288.444,375.655 288.313,375.655 288.154 C 375.655 287.995,376.175 287.822,376.810 287.769 C 377.533 287.709,377.937 287.529,377.889 287.288 C 377.841 287.048,378.161 286.903,378.737 286.903 C 379.245 286.903,379.661 286.764,379.661 286.595 C 379.661 286.425,380.060 286.287,380.548 286.287 C 381.036 286.287,381.607 286.079,381.818 285.824 C 382.029 285.570,382.467 285.362,382.790 285.362 C 383.114 285.362,383.458 285.154,383.556 284.900 C 383.653 284.646,384.065 284.438,384.471 284.438 C 384.876 284.438,385.208 284.299,385.208 284.129 C 385.208 283.960,385.490 283.821,385.834 283.821 C 386.178 283.821,386.540 283.613,386.637 283.359 C 386.735 283.105,387.096 282.897,387.440 282.897 C 387.784 282.897,388.386 282.550,388.779 282.126 C 389.172 281.703,389.777 281.356,390.124 281.356 C 390.479 281.356,390.755 281.154,390.755 280.894 C 390.755 280.639,391.012 280.431,391.326 280.431 C 391.641 280.431,392.272 280.085,392.729 279.661 C 393.186 279.237,393.632 278.891,393.720 278.891 C 393.809 278.891,394.074 278.717,394.310 278.505 C 395.330 277.591,395.679 277.350,395.981 277.350 C 396.157 277.350,396.302 277.142,396.302 276.888 C 396.302 276.633,396.457 276.425,396.647 276.425 C 397.159 276.425,398.757 274.505,398.762 273.883 C 398.765 273.586,398.959 273.344,399.194 273.344 C 400.276 273.344,400.453 258.697,399.384 257.627 C 399.045 257.288,398.767 256.929,398.767 256.829 C 398.767 256.399,397.038 254.250,396.687 254.244 C 396.475 254.240,396.302 254.029,396.302 253.775 C 396.302 253.521,396.094 253.313,395.840 253.313 C 395.586 253.313,395.378 253.174,395.378 253.005 C 395.378 252.835,395.181 252.696,394.940 252.696 C 394.700 252.696,393.926 252.142,393.220 251.464 C 392.515 250.786,391.686 250.231,391.379 250.231 C 391.072 250.231,390.741 250.023,390.644 249.769 C 390.546 249.515,390.184 249.307,389.840 249.307 C 389.496 249.307,389.214 249.168,389.214 248.998 C 389.214 248.829,389.021 248.690,388.785 248.690 C 388.549 248.690,388.276 248.482,388.178 248.228 C 388.081 247.974,387.734 247.766,387.408 247.766 C 387.082 247.766,386.735 247.558,386.637 247.304 C 386.540 247.049,386.178 246.841,385.834 246.841 C 385.490 246.841,385.208 246.703,385.208 246.533 C 385.208 246.364,384.876 246.225,384.471 246.225 C 384.065 246.225,383.653 246.017,383.556 245.763 C 383.458 245.508,383.027 245.300,382.598 245.300 C 382.169 245.300,381.818 245.162,381.818 244.992 C 381.818 244.823,381.333 244.684,380.740 244.684 C 379.986 244.684,379.661 244.545,379.661 244.222 C 379.661 243.918,379.357 243.760,378.769 243.760 C 378.261 243.760,377.802 243.561,377.701 243.297 C 377.597 243.027,377.135 242.835,376.589 242.835 C 376.075 242.835,375.655 242.696,375.655 242.527 C 375.655 242.357,375.100 242.219,374.422 242.219 C 373.532 242.219,373.190 242.090,373.190 241.757 C 373.190 241.434,372.864 241.294,372.111 241.294 C 371.518 241.294,371.032 241.156,371.032 240.986 C 371.032 240.817,370.408 240.678,369.646 240.678 C 368.701 240.678,368.283 240.555,368.336 240.293 C 368.383 240.058,367.997 239.868,367.351 239.806 C 366.767 239.751,366.143 239.511,365.964 239.274 C 365.785 239.036,365.189 238.810,364.638 238.770 C 364.087 238.730,363.636 238.589,363.636 238.455 C 363.636 238.322,363.097 238.213,362.437 238.213 C 361.655 238.213,361.175 238.052,361.060 237.750 C 360.942 237.444,360.458 237.288,359.622 237.288 C 358.860 237.288,358.437 237.166,358.552 236.980 C 358.669 236.790,358.144 236.672,357.183 236.672 C 356.003 236.672,355.624 236.560,355.624 236.210 C 355.624 235.869,355.269 235.747,354.275 235.747 C 353.452 235.747,352.776 235.567,352.542 235.285 C 352.310 235.005,351.635 234.823,350.828 234.823 C 350.096 234.823,349.411 234.684,349.307 234.515 C 349.202 234.345,348.353 234.206,347.421 234.206 C 346.489 234.206,345.803 234.082,345.897 233.931 C 346.149 233.522,345.290 233.282,343.580 233.282 C 342.747 233.282,342.065 233.143,342.065 232.974 C 342.065 232.797,341.122 232.666,339.854 232.666 L 337.644 232.666 336.079 234.308 " stroke="none" fill="#2b3b52" fill-rule="evenodd"></path><path id="path1" d="M206.086 0.358 C 205.620 0.528,205.239 0.795,205.239 0.950 C 205.239 1.106,204.768 1.233,204.193 1.233 C 203.548 1.233,203.080 1.410,202.970 1.695 C 202.859 1.985,202.388 2.157,201.705 2.157 C 201.106 2.157,200.616 2.296,200.616 2.465 C 200.616 2.635,200.356 2.773,200.038 2.773 C 199.720 2.773,199.286 2.982,199.076 3.236 C 198.865 3.490,198.362 3.698,197.959 3.698 C 197.556 3.698,197.227 3.837,197.227 4.006 C 197.227 4.176,196.945 4.314,196.600 4.314 C 196.256 4.314,195.895 4.522,195.797 4.777 C 195.700 5.031,195.353 5.239,195.027 5.239 C 194.701 5.239,194.354 5.447,194.256 5.701 C 194.159 5.955,193.747 6.163,193.341 6.163 C 192.936 6.163,192.604 6.302,192.604 6.471 C 192.604 6.641,192.396 6.780,192.142 6.780 C 191.888 6.780,191.680 6.988,191.680 7.242 C 191.680 7.530,191.388 7.704,190.909 7.704 C 190.485 7.704,190.139 7.843,190.139 8.012 C 190.139 8.182,189.931 8.320,189.676 8.320 C 189.422 8.320,189.214 8.463,189.214 8.636 C 189.214 8.810,188.867 9.084,188.444 9.245 C 188.020 9.406,187.673 9.680,187.673 9.854 C 187.673 10.027,187.431 10.170,187.134 10.171 C 186.837 10.172,185.914 10.790,185.081 11.545 C 184.248 12.300,183.451 12.846,183.309 12.758 C 183.167 12.670,183.051 12.745,183.051 12.925 C 183.051 13.104,182.843 13.251,182.589 13.251 C 182.334 13.251,182.126 13.459,182.126 13.713 C 182.126 13.968,181.978 14.176,181.796 14.176 C 181.370 14.176,180.586 14.960,180.586 15.386 C 180.586 15.568,180.458 15.716,180.301 15.716 C 179.931 15.716,178.120 17.527,178.120 17.897 C 178.120 18.054,177.972 18.182,177.790 18.182 C 177.363 18.182,176.579 18.966,176.579 19.392 C 176.579 19.574,176.442 19.723,176.275 19.723 C 175.801 19.723,174.743 20.727,174.918 21.010 C 175.004 21.150,174.875 21.263,174.630 21.263 C 174.386 21.263,174.104 21.506,174.005 21.803 C 173.773 22.493,173.217 23.337,172.342 24.326 C 171.961 24.757,171.649 25.353,171.649 25.652 C 171.649 25.950,171.432 26.194,171.168 26.194 C 170.904 26.194,170.774 26.334,170.880 26.504 C 170.985 26.675,170.855 26.898,170.590 27.000 C 170.325 27.101,170.108 27.451,170.108 27.778 C 170.108 28.104,169.900 28.450,169.646 28.548 C 169.391 28.646,169.183 29.057,169.183 29.463 C 169.183 29.868,169.045 30.200,168.875 30.200 C 168.706 30.200,168.567 30.488,168.567 30.839 C 168.567 31.190,168.359 31.685,168.105 31.939 C 167.851 32.193,167.643 32.748,167.643 33.172 C 167.643 33.596,167.435 34.150,167.180 34.405 C 166.926 34.659,166.718 35.273,166.718 35.769 C 166.718 36.266,166.579 36.672,166.410 36.672 C 166.240 36.672,166.102 37.142,166.102 37.717 C 166.102 38.363,165.925 38.831,165.639 38.940 C 165.351 39.051,165.177 39.521,165.177 40.188 C 165.177 40.776,165.039 41.344,164.869 41.448 C 164.700 41.553,164.556 42.151,164.551 42.776 C 164.546 43.402,164.338 44.183,164.089 44.512 C 163.840 44.841,163.636 45.708,163.636 46.438 C 163.636 47.168,163.521 47.766,163.380 47.766 C 163.238 47.766,163.103 47.939,163.078 48.151 C 162.763 50.885,162.589 51.811,162.364 51.951 C 161.977 52.190,162.017 70.262,162.404 70.262 C 162.573 70.262,162.712 70.945,162.712 71.781 C 162.712 72.720,162.888 73.476,163.174 73.762 C 163.428 74.016,163.636 74.702,163.636 75.287 C 163.636 75.872,163.844 76.522,164.099 76.733 C 164.364 76.954,164.561 77.626,164.561 78.312 C 164.561 78.969,164.700 79.507,164.869 79.507 C 165.039 79.507,165.177 79.858,165.177 80.287 C 165.177 80.716,165.385 81.147,165.639 81.244 C 165.925 81.354,166.102 81.822,166.102 82.467 C 166.102 83.043,166.240 83.513,166.410 83.513 C 166.579 83.513,166.718 83.912,166.718 84.400 C 166.718 84.888,166.926 85.459,167.180 85.670 C 167.435 85.881,167.643 86.384,167.643 86.787 C 167.643 87.232,167.824 87.519,168.105 87.519 C 168.392 87.519,168.567 87.810,168.567 88.290 C 168.567 88.713,168.706 89.060,168.875 89.060 C 169.045 89.060,169.183 89.411,169.183 89.840 C 169.183 90.269,169.391 90.700,169.646 90.798 C 169.900 90.895,170.108 91.247,170.108 91.580 C 170.108 91.913,170.317 92.395,170.573 92.651 C 170.829 92.907,170.959 93.244,170.862 93.401 C 170.765 93.558,170.902 93.770,171.167 93.872 C 171.432 93.974,171.649 94.304,171.649 94.607 C 171.649 94.910,171.857 95.237,172.111 95.335 C 172.365 95.432,172.573 95.713,172.573 95.958 C 172.573 96.204,172.718 96.453,172.895 96.512 C 173.072 96.571,173.240 96.929,173.269 97.308 C 173.297 97.687,173.466 97.997,173.645 97.997 C 173.823 97.997,174.209 98.552,174.503 99.230 C 174.796 99.908,175.176 100.462,175.346 100.462 C 175.516 100.462,175.655 100.809,175.655 101.233 C 175.655 101.663,175.833 102.003,176.060 102.003 C 176.282 102.003,176.655 102.488,176.888 103.082 C 177.120 103.675,177.632 104.401,178.024 104.696 C 178.416 104.990,178.737 105.406,178.737 105.620 C 178.737 105.834,178.882 106.009,179.059 106.009 C 179.532 106.009,180.911 107.581,180.716 107.897 C 180.624 108.045,180.696 108.166,180.875 108.166 C 181.055 108.166,181.202 108.374,181.202 108.629 C 181.202 108.883,181.341 109.091,181.510 109.091 C 181.919 109.091,183.051 110.236,183.051 110.650 C 183.051 110.829,183.181 110.896,183.340 110.798 C 183.499 110.699,183.754 110.842,183.907 111.115 C 184.060 111.388,184.276 111.599,184.388 111.584 C 185.012 111.499,185.208 111.603,185.208 112.018 C 185.208 112.273,185.416 112.481,185.670 112.481 C 185.924 112.481,186.133 112.689,186.133 112.943 C 186.133 113.197,186.256 113.405,186.408 113.405 C 186.774 113.405,191.680 118.302,191.680 118.667 C 191.680 118.824,191.888 118.952,192.142 118.952 C 192.437 118.952,192.604 119.249,192.604 119.774 C 192.604 120.226,192.691 120.509,192.797 120.402 C 193.217 119.983,194.145 122.523,194.145 124.092 C 194.145 126.305,191.910 128.505,189.662 128.505 C 189.282 128.505,188.892 128.713,188.795 128.968 C 188.539 129.634,184.342 129.634,184.087 128.968 C 183.955 128.625,183.410 128.505,181.977 128.505 C 180.752 128.505,179.921 128.356,179.707 128.099 C 179.521 127.875,178.638 127.659,177.743 127.619 C 176.849 127.579,176.071 127.416,176.014 127.256 C 175.958 127.096,175.247 126.965,174.434 126.965 C 173.539 126.965,172.815 126.793,172.596 126.530 C 172.398 126.291,171.514 126.022,170.632 125.932 C 167.268 125.590,165.363 125.211,165.247 124.862 C 165.173 124.639,164.435 124.499,163.340 124.499 C 162.243 124.499,161.425 124.343,161.219 124.095 C 161.035 123.873,160.220 123.657,159.410 123.616 C 158.599 123.574,157.804 123.409,157.643 123.249 C 157.482 123.089,156.719 122.954,155.948 122.949 C 155.176 122.943,154.276 122.735,153.947 122.486 C 153.616 122.236,152.695 122.034,151.885 122.034 C 151.080 122.034,150.336 121.895,150.231 121.726 C 150.126 121.556,149.372 121.418,148.556 121.418 C 147.612 121.418,146.931 121.249,146.687 120.955 C 146.476 120.701,145.922 120.493,145.455 120.493 C 144.988 120.493,144.458 120.315,144.277 120.098 C 144.097 119.880,143.491 119.668,142.930 119.626 C 142.369 119.584,141.864 119.415,141.808 119.251 C 141.751 119.087,141.291 118.952,140.784 118.952 C 140.278 118.952,139.656 118.744,139.401 118.490 C 139.147 118.236,138.533 118.028,138.037 118.028 C 137.540 118.028,137.134 117.889,137.134 117.720 C 137.134 117.550,136.804 117.411,136.401 117.411 C 135.998 117.411,135.496 117.203,135.285 116.949 C 135.074 116.695,134.517 116.487,134.048 116.487 C 133.573 116.487,133.115 116.282,133.016 116.025 C 132.919 115.770,132.557 115.562,132.213 115.562 C 131.869 115.562,131.587 115.424,131.587 115.254 C 131.587 115.085,131.255 114.946,130.850 114.946 C 130.444 114.946,130.032 114.738,129.935 114.484 C 129.837 114.230,129.406 114.022,128.977 114.022 C 128.548 114.022,128.197 113.883,128.197 113.713 C 128.197 113.544,127.851 113.405,127.427 113.405 C 126.998 113.405,126.656 113.227,126.656 113.002 C 126.656 112.781,126.102 112.355,125.424 112.056 C 124.746 111.756,124.191 111.383,124.191 111.226 C 124.191 111.069,123.844 110.940,123.421 110.940 C 122.997 110.940,122.650 110.791,122.650 110.610 C 122.650 110.113,121.836 109.399,121.271 109.399 C 120.996 109.399,120.466 109.077,120.093 108.683 C 119.720 108.289,119.172 107.877,118.875 107.768 C 118.579 107.659,118.336 107.426,118.336 107.252 C 118.336 107.077,118.059 106.934,117.720 106.934 C 117.381 106.934,117.103 106.749,117.103 106.524 C 117.103 106.298,116.757 105.928,116.333 105.701 C 115.909 105.474,115.562 105.104,115.562 104.879 C 115.562 104.653,115.382 104.468,115.162 104.468 C 114.574 104.468,113.102 103.739,113.099 103.447 C 113.095 102.974,109.748 99.846,109.247 99.846 C 108.972 99.846,108.830 99.711,108.931 99.547 C 109.033 99.382,108.782 99.164,108.373 99.061 C 107.964 98.958,107.449 98.538,107.229 98.128 C 107.009 97.717,106.719 97.381,106.584 97.381 C 106.220 97.381,104.468 95.603,104.468 95.234 C 104.468 95.059,104.319 94.915,104.137 94.915 C 103.954 94.915,103.399 94.510,102.904 94.014 C 102.408 93.519,102.003 92.964,102.003 92.782 C 102.003 92.599,101.852 92.450,101.668 92.450 C 101.279 92.450,97.997 89.107,97.997 88.711 C 97.997 88.564,97.848 88.444,97.665 88.444 C 97.483 88.444,96.936 88.062,96.452 87.596 C 94.498 85.719,94.037 85.362,93.562 85.362 C 93.289 85.362,93.066 85.214,93.066 85.032 C 93.066 84.562,92.381 83.939,91.588 83.687 C 91.215 83.569,90.909 83.342,90.909 83.184 C 90.909 83.026,90.716 82.897,90.480 82.897 C 90.244 82.897,89.971 82.689,89.873 82.435 C 89.776 82.180,89.414 81.972,89.070 81.972 C 88.725 81.972,88.444 81.834,88.444 81.664 C 88.444 81.495,87.889 81.356,87.211 81.356 C 86.321 81.356,85.978 81.228,85.978 80.894 C 85.978 80.503,85.245 80.431,81.227 80.431 C 76.475 80.431,75.355 80.562,75.675 81.080 C 75.769 81.232,75.484 81.356,75.041 81.356 C 74.110 81.356,72.419 82.156,72.419 82.597 C 72.419 82.762,72.072 82.897,71.649 82.897 C 71.213 82.897,70.878 83.075,70.878 83.307 C 70.878 83.533,70.532 83.903,70.108 84.129 C 69.684 84.356,69.337 84.726,69.337 84.952 C 69.337 85.178,69.129 85.362,68.875 85.362 C 68.621 85.362,68.413 85.537,68.413 85.751 C 68.413 85.965,68.066 86.401,67.643 86.719 C 67.219 87.037,66.872 87.493,66.872 87.731 C 66.872 87.970,66.518 88.493,66.084 88.895 C 65.651 89.296,65.276 89.904,65.250 90.246 C 65.224 90.587,65.084 90.793,64.938 90.703 C 64.793 90.613,64.597 90.830,64.504 91.186 C 64.411 91.542,64.212 91.834,64.063 91.834 C 63.913 91.834,63.790 92.180,63.790 92.604 C 63.790 93.028,63.617 93.376,63.405 93.378 C 63.193 93.380,62.755 93.935,62.431 94.611 C 62.107 95.287,61.726 95.840,61.584 95.840 C 61.441 95.840,61.325 96.186,61.325 96.610 C 61.325 97.090,61.150 97.381,60.863 97.381 C 60.575 97.381,60.401 97.672,60.401 98.151 C 60.401 98.575,60.262 98.921,60.092 98.921 C 59.923 98.921,59.784 99.253,59.784 99.659 C 59.784 100.064,59.576 100.476,59.322 100.574 C 59.068 100.671,58.860 101.018,58.860 101.344 C 58.860 101.670,58.652 102.017,58.398 102.115 C 58.143 102.212,57.935 102.643,57.935 103.072 C 57.935 103.501,57.797 103.852,57.627 103.852 C 57.458 103.852,57.319 104.184,57.319 104.590 C 57.319 104.995,57.111 105.407,56.857 105.504 C 56.567 105.616,56.394 106.087,56.394 106.770 C 56.394 107.369,56.256 107.858,56.086 107.858 C 55.917 107.858,55.778 108.205,55.778 108.629 C 55.778 109.108,55.603 109.399,55.316 109.399 C 55.034 109.399,54.854 109.686,54.854 110.137 C 54.854 110.542,54.646 110.954,54.391 111.051 C 54.137 111.149,53.929 111.580,53.929 112.009 C 53.929 112.438,53.790 112.789,53.621 112.789 C 53.451 112.789,53.313 113.274,53.313 113.867 C 53.313 114.621,53.173 114.946,52.851 114.946 C 52.563 114.946,52.388 115.237,52.388 115.716 C 52.388 116.140,52.250 116.487,52.080 116.487 C 51.911 116.487,51.772 116.911,51.772 117.430 C 51.772 117.948,51.648 118.296,51.496 118.202 C 51.164 117.997,50.847 118.735,50.847 119.715 C 50.847 120.107,50.631 120.510,50.366 120.612 C 50.101 120.714,49.958 120.916,50.048 121.062 C 50.138 121.208,50.012 121.590,49.769 121.911 C 49.525 122.233,49.322 122.887,49.316 123.366 C 49.311 123.844,49.099 124.443,48.844 124.697 C 48.590 124.952,48.382 125.566,48.382 126.062 C 48.382 126.558,48.243 126.965,48.074 126.965 C 47.904 126.965,47.766 127.519,47.766 128.197 C 47.766 129.087,47.637 129.430,47.304 129.430 C 47.022 129.430,46.841 129.717,46.841 130.163 C 46.841 130.566,46.633 131.068,46.379 131.279 C 46.125 131.490,45.917 132.062,45.917 132.549 C 45.917 133.037,45.778 133.436,45.609 133.436 C 45.439 133.436,45.300 133.926,45.300 134.524 C 45.300 135.207,45.128 135.679,44.838 135.790 C 44.537 135.906,44.376 136.385,44.376 137.167 C 44.376 137.827,44.237 138.367,44.068 138.367 C 43.898 138.367,43.760 138.995,43.760 139.763 C 43.760 140.720,43.614 141.215,43.297 141.337 C 43.017 141.445,42.835 141.911,42.835 142.522 C 42.835 143.077,42.656 143.679,42.437 143.861 C 42.218 144.042,42.003 144.718,41.960 145.361 C 41.917 146.005,41.749 146.664,41.588 146.825 C 41.426 146.987,41.290 147.680,41.284 148.367 C 41.279 149.053,41.071 149.884,40.822 150.213 C 40.573 150.542,40.370 151.409,40.370 152.139 C 40.370 152.869,40.231 153.467,40.062 153.467 C 39.888 153.467,39.753 154.331,39.753 155.444 C 39.753 156.752,39.623 157.465,39.368 157.550 C 39.105 157.637,38.948 158.644,38.874 160.728 C 38.805 162.653,38.609 164.001,38.341 164.382 C 37.698 165.301,37.719 191.009,38.364 191.861 C 38.703 192.310,38.812 193.502,38.819 196.863 C 38.827 200.366,38.924 201.372,39.291 201.739 C 39.605 202.053,39.753 202.830,39.753 204.164 C 39.753 205.244,39.892 206.213,40.062 206.317 C 40.231 206.422,40.370 207.267,40.370 208.194 C 40.370 209.409,40.499 209.930,40.832 210.058 C 41.117 210.167,41.294 210.636,41.294 211.281 C 41.294 211.856,41.433 212.327,41.602 212.327 C 41.772 212.327,41.911 212.733,41.911 213.229 C 41.911 213.726,42.119 214.340,42.373 214.594 C 42.627 214.848,42.835 215.396,42.835 215.811 C 42.835 216.226,43.043 216.738,43.297 216.949 C 43.552 217.160,43.760 217.662,43.760 218.065 C 43.760 218.468,43.898 218.798,44.068 218.798 C 44.237 218.798,44.376 219.288,44.376 219.886 C 44.376 220.569,44.548 221.041,44.838 221.152 C 45.092 221.250,45.300 221.661,45.300 222.067 C 45.300 222.472,45.417 222.804,45.559 222.804 C 45.701 222.804,46.083 223.357,46.407 224.033 C 46.730 224.709,47.169 225.264,47.381 225.266 C 47.592 225.268,47.766 225.616,47.766 226.040 C 47.766 226.464,47.888 226.810,48.038 226.810 C 48.188 226.810,48.386 227.102,48.480 227.458 C 48.573 227.814,48.768 228.031,48.914 227.941 C 49.059 227.851,49.200 228.057,49.225 228.398 C 49.251 228.740,49.613 229.335,50.029 229.720 C 50.445 230.106,50.842 230.684,50.912 231.004 C 50.981 231.325,51.203 231.552,51.405 231.510 C 51.607 231.468,51.772 231.641,51.772 231.895 C 51.772 232.149,51.911 232.357,52.080 232.357 C 52.250 232.357,52.388 232.565,52.388 232.820 C 52.388 233.074,52.596 233.282,52.851 233.282 C 53.105 233.282,53.313 233.479,53.313 233.720 C 53.313 233.961,53.731 234.249,54.243 234.362 C 54.754 234.474,55.666 235.032,56.270 235.601 C 56.874 236.170,58.154 237.280,59.115 238.067 C 60.076 238.854,62.042 240.644,63.482 242.044 C 73.598 251.877,90.168 262.863,99.538 265.948 C 100.639 266.311,101.818 266.730,102.157 266.880 C 103.115 267.302,106.832 268.399,109.553 269.063 C 110.909 269.394,112.504 269.794,113.097 269.953 C 114.984 270.458,118.969 271.174,123.575 271.837 C 128.059 272.483,129.903 272.703,135.901 273.310 C 137.681 273.490,140.316 273.775,141.757 273.944 C 154.126 275.390,162.122 275.632,196.456 275.597 C 231.795 275.560,263.815 275.115,267.488 274.610 C 268.929 274.412,271.633 274.044,273.498 273.793 C 280.408 272.861,281.580 272.664,284.746 271.909 C 291.289 270.347,301.008 266.336,302.928 264.406 C 303.012 264.321,303.914 263.710,304.931 263.048 C 311.313 258.896,320.799 250.394,326.281 243.914 C 328.366 241.448,330.665 238.962,335.318 234.138 C 336.145 233.280,337.014 232.666,337.398 232.666 C 337.761 232.666,338.059 232.519,338.059 232.339 C 338.059 232.160,338.197 232.099,338.367 232.203 C 338.541 232.311,338.675 232.053,338.675 231.605 C 338.675 231.110,338.847 230.817,339.137 230.817 C 339.425 230.817,339.599 230.526,339.599 230.046 C 339.599 229.608,339.777 229.276,340.012 229.276 C 340.239 229.276,340.608 228.721,340.832 228.043 C 341.056 227.365,341.425 226.810,341.652 226.810 C 341.887 226.810,342.065 226.479,342.065 226.040 C 342.065 225.616,342.203 225.270,342.373 225.270 C 342.542 225.270,342.681 224.938,342.681 224.532 C 342.681 224.127,342.889 223.715,343.143 223.617 C 343.417 223.512,343.606 223.049,343.606 222.484 C 343.606 221.958,343.814 221.320,344.068 221.065 C 344.322 220.811,344.530 220.336,344.530 220.009 C 344.530 219.682,344.669 219.414,344.838 219.414 C 345.008 219.414,345.146 218.929,345.146 218.336 C 345.146 217.583,345.286 217.257,345.609 217.257 C 345.942 217.257,346.071 216.915,346.071 216.025 C 346.071 215.347,346.210 214.792,346.379 214.792 C 346.549 214.792,346.687 214.324,346.687 213.751 C 346.687 213.179,346.895 212.538,347.149 212.327 C 347.407 212.113,347.612 211.441,347.612 210.810 C 347.612 210.186,347.785 209.503,347.997 209.291 C 348.437 208.851,348.446 208.811,348.498 206.916 C 348.520 206.092,348.660 205.587,348.836 205.696 C 349.228 205.938,349.244 185.227,348.852 184.755 C 348.696 184.567,348.534 183.824,348.492 183.103 C 348.449 182.382,348.234 181.643,348.013 181.459 C 347.792 181.276,347.612 180.668,347.612 180.108 C 347.612 179.547,347.404 178.881,347.149 178.626 C 346.895 178.372,346.687 177.677,346.687 177.082 C 346.687 176.486,346.549 175.914,346.379 175.809 C 346.210 175.704,346.071 175.280,346.071 174.866 C 346.071 174.403,345.893 174.114,345.609 174.114 C 345.275 174.114,345.146 173.772,345.146 172.881 C 345.146 172.203,345.023 171.649,344.873 171.649 C 344.722 171.649,344.508 171.163,344.396 170.570 C 344.285 169.977,344.062 169.492,343.900 169.492 C 343.738 169.492,343.606 169.160,343.606 168.754 C 343.606 168.348,343.398 167.937,343.143 167.839 C 342.889 167.742,342.681 167.311,342.681 166.882 C 342.681 166.453,342.542 166.102,342.373 166.102 C 342.203 166.102,342.065 165.755,342.065 165.331 C 342.065 164.852,341.890 164.561,341.602 164.561 C 341.315 164.561,341.140 164.270,341.140 163.790 C 341.140 163.367,341.017 163.020,340.865 163.020 C 340.714 163.020,340.504 162.673,340.397 162.250 C 340.291 161.826,340.068 161.479,339.902 161.479 C 339.735 161.479,339.599 161.128,339.599 160.699 C 339.599 160.270,339.391 159.839,339.137 159.742 C 338.883 159.644,338.675 159.232,338.675 158.827 C 338.675 158.421,338.551 158.089,338.400 158.089 C 338.249 158.089,338.038 157.743,337.932 157.319 C 337.826 156.895,337.603 156.549,337.436 156.549 C 337.270 156.549,337.134 156.358,337.134 156.124 C 337.134 155.891,336.923 155.524,336.664 155.310 C 336.406 155.095,336.256 154.859,336.331 154.784 C 336.518 154.597,335.357 153.467,334.977 153.467 C 334.807 153.467,334.669 153.171,334.669 152.809 C 334.669 152.447,334.322 151.829,333.898 151.437 C 333.475 151.044,333.128 150.637,333.128 150.532 C 333.128 150.218,332.272 149.461,331.917 149.461 C 331.736 149.461,331.587 149.253,331.587 148.998 C 331.587 148.744,331.402 148.536,331.177 148.536 C 330.951 148.536,330.581 148.190,330.354 147.766 C 330.128 147.342,329.757 146.995,329.532 146.995 C 329.306 146.995,329.122 146.847,329.122 146.665 C 329.122 146.239,328.338 145.455,327.911 145.455 C 327.729 145.455,327.581 145.247,327.581 144.992 C 327.581 144.738,327.432 144.530,327.251 144.530 C 326.840 144.530,326.040 143.752,326.040 143.353 C 326.040 143.190,325.693 142.969,325.270 142.863 C 324.846 142.756,324.499 142.533,324.499 142.367 C 324.499 142.201,324.291 142.065,324.037 142.065 C 323.783 142.065,323.575 141.926,323.575 141.757 C 323.575 141.587,323.367 141.448,323.112 141.448 C 322.858 141.448,322.650 141.240,322.650 140.986 C 322.650 140.732,322.475 140.524,322.262 140.524 C 322.048 140.524,321.500 140.177,321.043 139.753 C 320.586 139.330,320.067 138.983,319.890 138.983 C 319.713 138.983,319.569 138.867,319.569 138.724 C 319.569 138.582,319.015 138.201,318.339 137.877 C 317.663 137.553,317.109 137.115,317.107 136.903 C 317.105 136.691,316.955 136.518,316.773 136.518 C 316.591 136.518,316.250 136.344,316.013 136.133 C 314.994 135.218,314.645 134.977,314.343 134.977 C 314.166 134.977,314.022 134.838,314.022 134.668 C 314.022 134.498,313.467 134.118,312.789 133.825 C 312.111 133.531,311.556 133.174,311.556 133.031 C 311.556 132.654,309.813 130.971,309.423 130.971 C 309.240 130.971,309.091 130.822,309.091 130.641 C 309.091 130.459,308.893 130.112,308.651 129.870 C 308.409 129.628,308.062 129.430,307.880 129.430 C 307.699 129.430,307.550 129.222,307.550 128.968 C 307.550 128.713,307.342 128.505,307.088 128.505 C 306.834 128.505,306.660 128.332,306.703 128.120 C 306.745 127.908,306.606 127.770,306.394 127.812 C 306.183 127.854,306.009 127.681,306.009 127.427 C 306.009 127.173,305.801 126.965,305.547 126.965 C 305.293 126.965,305.085 126.757,305.085 126.502 C 305.085 126.248,304.975 126.040,304.841 126.040 C 304.707 126.040,304.193 125.347,303.698 124.499 C 303.203 123.652,302.619 122.958,302.401 122.958 C 302.182 122.958,302.003 122.677,302.003 122.332 C 302.003 121.988,301.795 121.627,301.541 121.529 C 301.287 121.431,301.079 121.158,301.079 120.922 C 301.079 120.686,300.940 120.493,300.770 120.493 C 300.601 120.493,300.462 120.146,300.462 119.723 C 300.462 119.243,300.288 118.952,300.000 118.952 C 299.717 118.952,299.538 118.664,299.538 118.207 C 299.538 117.798,299.414 117.417,299.264 117.360 C 299.113 117.304,298.922 116.657,298.839 115.924 C 298.756 115.190,298.533 114.434,298.343 114.244 C 297.914 113.815,297.864 106.108,298.289 105.958 C 298.590 105.852,298.845 104.757,298.977 103.005 C 299.019 102.454,299.162 102.003,299.295 102.003 C 299.429 102.003,299.538 101.463,299.538 100.803 C 299.538 100.021,299.699 99.542,300.000 99.426 C 300.254 99.329,300.462 98.975,300.462 98.641 C 300.462 98.307,300.601 97.948,300.770 97.843 C 300.940 97.738,301.079 97.175,301.079 96.592 C 301.079 95.855,301.220 95.532,301.541 95.532 C 301.828 95.532,302.003 95.241,302.003 94.761 C 302.003 94.337,302.115 93.991,302.252 93.991 C 302.630 93.991,303.544 91.736,303.544 90.806 C 303.544 90.281,303.711 89.985,304.006 89.985 C 304.383 89.985,304.468 89.471,304.468 87.211 C 304.468 85.033,304.375 84.438,304.035 84.438 C 303.797 84.438,302.964 83.367,302.186 82.059 L 300.770 79.680 300.776 75.356 C 300.779 72.731,300.961 70.185,301.238 68.875 C 302.157 64.537,301.732 54.748,300.434 50.363 C 300.280 49.843,300.155 49.080,300.156 48.668 C 300.156 48.257,299.927 46.809,299.645 45.450 C 298.962 42.155,299.684 39.506,302.031 36.698 C 304.203 34.098,304.122 31.040,301.822 28.818 C 301.468 28.477,301.001 27.747,300.783 27.196 C 300.566 26.645,300.196 26.194,299.963 26.194 C 299.729 26.194,299.538 26.066,299.538 25.910 C 299.538 25.540,297.727 23.729,297.357 23.729 C 297.200 23.729,297.072 23.469,297.072 23.151 C 297.072 22.439,291.995 17.257,291.298 17.257 C 291.208 17.257,290.813 16.911,290.420 16.487 C 290.027 16.063,289.561 15.716,289.383 15.716 C 289.205 15.716,289.060 15.568,289.060 15.386 C 289.060 14.892,288.247 14.176,287.686 14.176 C 287.414 14.176,287.112 13.968,287.014 13.713 C 286.917 13.459,286.644 13.251,286.408 13.251 C 286.172 13.251,285.978 13.115,285.978 12.949 C 285.978 12.783,285.632 12.560,285.208 12.453 C 284.784 12.347,284.438 12.136,284.438 11.985 C 284.438 11.834,284.106 11.710,283.700 11.710 C 283.295 11.710,282.883 11.502,282.785 11.248 C 282.688 10.994,282.257 10.786,281.828 10.786 C 281.399 10.786,281.048 10.647,281.048 10.478 C 281.048 10.308,280.701 10.169,280.277 10.169 C 279.798 10.169,279.507 9.995,279.507 9.707 C 279.507 9.425,279.220 9.245,278.769 9.245 C 278.364 9.245,277.952 9.037,277.855 8.783 C 277.757 8.529,277.396 8.320,277.051 8.320 C 276.707 8.320,276.425 8.182,276.425 8.012 C 276.425 7.843,276.087 7.704,275.673 7.704 C 275.259 7.704,274.841 7.574,274.742 7.416 C 274.503 7.029,272.743 6.163,272.196 6.163 C 271.955 6.163,271.551 5.955,271.297 5.701 C 271.042 5.447,270.428 5.239,269.932 5.239 C 269.428 5.239,269.063 5.087,269.106 4.896 C 269.149 4.707,268.837 4.495,268.413 4.425 C 267.989 4.354,267.596 4.162,267.540 3.997 C 267.483 3.833,267.117 3.698,266.725 3.698 C 266.334 3.698,265.934 3.490,265.836 3.236 C 265.725 2.946,265.254 2.773,264.571 2.773 C 263.972 2.773,263.482 2.635,263.482 2.465 C 263.482 2.296,262.993 2.157,262.394 2.157 C 261.711 2.157,261.240 1.985,261.128 1.695 C 261.031 1.441,260.631 1.233,260.239 1.233 C 259.848 1.233,259.479 1.087,259.419 0.908 C 259.120 0.010,208.469 -0.512,206.086 0.358 M260.958 28.965 C 261.559 28.967,261.900 29.094,261.787 29.276 C 261.683 29.445,261.806 29.584,262.061 29.584 C 264.292 29.584,268.695 34.323,268.726 36.758 C 268.729 37.000,268.833 36.973,269.017 36.680 C 269.270 36.281,269.323 36.281,269.458 36.680 C 273.660 49.069,259.573 59.292,250.853 50.183 C 243.355 42.350,248.470 27.866,258.398 28.815 C 259.245 28.896,260.397 28.963,260.958 28.965 " stroke="none" fill="#f3c30c" fill-rule="evenodd"></path><path id="path2" d="M303.544 34.052 C 303.544 34.335,303.693 34.516,303.875 34.456 C 304.057 34.395,304.206 34.213,304.206 34.052 C 304.206 33.891,304.057 33.710,303.875 33.649 C 303.693 33.588,303.544 33.770,303.544 34.052 M335.748 33.897 C 335.641 34.070,335.736 34.277,335.959 34.358 C 336.615 34.596,338.042 34.387,338.044 34.052 C 338.048 33.638,335.994 33.499,335.748 33.897 M304.938 34.835 C 305.065 35.041,304.867 35.088,304.385 34.967 C 301.921 34.349,298.783 41.290,299.645 45.450 C 299.927 46.809,300.156 48.257,300.156 48.668 C 300.155 49.080,300.280 49.843,300.434 50.363 C 301.732 54.748,302.157 64.537,301.238 68.875 C 300.961 70.185,300.779 72.732,300.776 75.361 L 300.770 79.689 302.143 81.986 L 303.516 84.284 305.071 84.446 C 305.926 84.536,306.626 84.484,306.626 84.331 C 306.626 84.179,306.868 84.244,307.165 84.477 C 307.655 84.861,307.665 84.850,307.275 84.353 C 306.724 83.652,307.093 83.272,307.860 83.751 C 308.587 84.205,309.422 83.932,309.187 83.318 C 309.050 82.961,309.189 82.910,309.841 83.073 C 310.520 83.244,310.700 83.163,310.841 82.627 C 310.936 82.261,311.260 81.972,311.574 81.972 C 311.883 81.972,312.225 81.828,312.334 81.652 C 312.443 81.475,312.808 81.418,313.145 81.525 C 313.598 81.669,313.800 81.553,313.924 81.079 C 314.016 80.727,314.222 80.519,314.380 80.617 C 314.860 80.913,316.860 79.811,316.682 79.349 C 316.574 79.066,316.719 78.971,317.136 79.051 C 317.547 79.130,317.831 78.953,317.992 78.515 C 318.161 78.059,318.305 77.975,318.467 78.237 C 318.644 78.523,318.801 78.527,319.130 78.254 C 319.368 78.057,319.473 77.753,319.365 77.578 C 319.237 77.371,319.479 77.332,320.062 77.468 C 320.716 77.621,320.832 77.593,320.493 77.364 C 320.096 77.095,320.107 77.050,320.570 77.046 C 320.867 77.044,321.109 76.907,321.109 76.743 C 321.109 76.579,321.317 76.524,321.572 76.622 C 321.892 76.745,322.034 76.601,322.034 76.150 C 322.034 75.793,322.181 75.501,322.360 75.501 C 322.540 75.501,322.615 75.616,322.528 75.758 C 322.441 75.899,322.565 76.014,322.804 76.014 C 323.044 76.014,323.167 75.897,323.079 75.754 C 322.990 75.611,323.346 75.408,323.871 75.303 C 324.660 75.145,324.792 75.000,324.641 74.459 C 324.500 73.954,324.529 73.908,324.770 74.259 C 325.029 74.635,325.280 74.515,326.238 73.556 C 326.890 72.905,327.582 72.472,327.824 72.565 C 328.083 72.664,328.319 72.481,328.417 72.106 C 328.540 71.637,328.680 71.564,328.978 71.811 C 329.262 72.047,329.438 72.039,329.596 71.783 C 329.718 71.587,329.626 71.292,329.392 71.128 C 329.088 70.914,329.208 70.868,329.815 70.965 C 330.498 71.075,330.663 70.984,330.663 70.494 C 330.663 70.067,330.807 69.943,331.152 70.076 C 331.628 70.258,332.889 69.497,333.139 68.875 C 333.208 68.706,333.441 68.608,333.658 68.658 C 333.885 68.710,334.052 68.465,334.052 68.081 C 334.052 67.541,334.136 67.482,334.487 67.774 C 334.817 68.047,334.976 68.048,335.143 67.777 C 335.265 67.580,335.173 67.283,334.939 67.117 C 334.609 66.881,334.632 66.852,335.045 66.984 C 335.378 67.091,335.752 66.903,336.047 66.482 C 336.306 66.113,336.518 65.938,336.518 66.095 C 336.518 66.251,336.684 66.213,336.888 66.009 C 337.091 65.806,337.448 65.639,337.682 65.639 C 338.376 65.639,339.929 63.897,339.720 63.352 C 339.610 63.066,339.695 62.866,339.927 62.866 C 340.584 62.866,341.420 61.918,341.221 61.400 C 341.108 61.104,341.162 60.994,341.361 61.117 C 341.540 61.228,341.876 61.085,342.107 60.800 C 342.396 60.444,342.407 60.355,342.142 60.514 C 341.930 60.641,341.757 60.664,341.757 60.565 C 341.757 60.466,342.103 60.254,342.527 60.092 C 342.988 59.917,343.297 59.556,343.297 59.194 C 343.297 58.861,343.413 58.516,343.555 58.429 C 343.697 58.341,343.761 57.466,343.699 56.485 C 343.589 54.750,343.598 54.725,344.021 55.624 C 344.409 56.448,344.482 56.486,344.696 55.968 C 344.828 55.649,344.810 55.164,344.656 54.890 C 344.502 54.616,344.445 52.359,344.530 49.874 C 344.615 47.390,344.610 45.404,344.518 45.461 C 344.069 45.741,343.546 43.562,343.665 41.907 C 343.737 40.912,343.684 40.167,343.547 40.252 C 343.410 40.337,343.297 40.251,343.297 40.062 C 343.297 39.872,343.159 39.803,342.989 39.908 C 342.820 40.012,342.681 39.867,342.681 39.585 C 342.681 39.272,342.849 39.136,343.111 39.236 C 343.441 39.363,343.490 39.214,343.325 38.596 C 343.086 37.701,342.498 37.343,342.290 37.964 C 342.215 38.186,342.201 38.074,342.259 37.717 C 342.373 37.002,341.361 35.883,340.873 36.184 C 340.704 36.289,340.466 36.211,340.343 36.013 C 340.204 35.788,340.254 35.735,340.476 35.872 C 341.086 36.249,340.866 35.605,340.186 35.023 C 339.831 34.719,339.450 34.569,339.339 34.689 C 339.228 34.809,339.310 34.969,339.522 35.045 C 340.131 35.262,339.971 35.747,339.291 35.747 C 338.949 35.747,338.675 35.542,338.675 35.285 C 338.675 34.911,338.181 34.823,336.081 34.823 C 334.654 34.823,333.267 34.739,332.999 34.636 C 332.642 34.499,332.506 34.643,332.490 35.175 C 332.474 35.712,332.414 35.774,332.259 35.415 C 332.093 35.030,331.840 34.983,331.048 35.192 C 330.026 35.462,329.739 35.905,330.431 36.142 C 330.643 36.214,330.506 36.222,330.127 36.160 C 329.748 36.097,329.193 36.176,328.894 36.336 C 328.596 36.496,328.099 36.706,327.791 36.802 C 327.389 36.927,327.279 37.173,327.403 37.672 C 327.498 38.054,327.496 38.193,327.398 37.982 C 327.094 37.318,325.633 37.495,325.811 38.174 C 325.927 38.617,325.828 38.716,325.388 38.601 C 324.991 38.497,324.723 38.675,324.522 39.179 C 324.358 39.588,324.222 39.701,324.211 39.437 C 324.181 38.734,321.802 39.023,321.325 39.788 C 321.099 40.150,320.609 40.370,320.031 40.370 C 319.452 40.370,318.963 40.150,318.737 39.788 C 318.259 39.023,315.880 38.734,315.851 39.437 C 315.840 39.701,315.703 39.588,315.540 39.179 C 315.338 38.675,315.071 38.497,314.674 38.601 C 314.233 38.716,314.135 38.617,314.251 38.174 C 314.428 37.495,312.968 37.318,312.663 37.982 C 312.566 38.193,312.564 38.054,312.659 37.672 C 312.857 36.873,312.044 36.369,311.474 36.939 C 311.282 37.131,310.890 37.288,310.603 37.288 C 309.975 37.288,309.591 36.471,310.110 36.238 C 310.312 36.147,309.784 36.146,308.937 36.235 C 307.678 36.367,307.502 36.331,307.972 36.036 C 308.438 35.744,308.468 35.624,308.126 35.408 C 307.547 35.041,306.317 35.062,306.317 35.439 C 306.317 35.609,305.936 35.743,305.470 35.738 C 304.700 35.729,304.672 35.690,305.162 35.318 C 305.829 34.812,305.851 34.515,305.221 34.515 C 304.956 34.515,304.829 34.659,304.938 34.835 M344.053 42.015 C 343.950 42.425,343.925 43.159,343.998 43.645 C 344.104 44.360,344.139 44.294,344.180 43.297 C 344.218 42.378,344.307 42.182,344.530 42.527 C 344.773 42.903,344.830 42.863,344.833 42.314 C 344.840 41.347,344.275 41.131,344.053 42.015 M345.060 47.031 C 344.737 47.353,344.788 53.005,345.113 53.005 C 345.580 53.005,345.764 52.117,345.741 49.975 C 345.719 47.843,345.442 46.648,345.060 47.031 M304.468 85.168 C 304.468 85.398,304.748 85.570,305.089 85.551 C 305.951 85.503,306.005 84.984,305.162 84.855 C 304.731 84.790,304.468 84.908,304.468 85.168 " stroke="none" fill="#e34b3b" fill-rule="evenodd"></path><path id="path3" d="M255.354 29.147 C 244.905 32.476,244.325 48.154,254.480 52.759 C 262.767 56.517,272.354 47.589,269.935 38.367 C 269.342 36.104,269.214 36.191,269.034 38.983 C 268.554 46.426,262.333 50.853,256.365 47.999 C 247.492 43.757,249.818 30.241,259.583 29.295 C 260.965 29.161,261.610 29.032,261.017 29.007 C 260.424 28.982,259.245 28.896,258.398 28.815 C 257.457 28.725,256.271 28.854,255.354 29.147 M259.185 36.956 C 258.110 37.783,258.058 40.628,259.100 41.670 C 260.096 42.668,262.291 42.615,263.138 41.573 C 265.497 38.673,262.105 34.712,259.185 36.956 " stroke="none" fill="#f8f6ed" fill-rule="evenodd"></path><path id="path4" d="M257.625 29.545 C 249.957 32.061,248.455 43.069,255.199 47.327 C 264.410 53.141,273.787 40.236,266.265 32.097 C 264.256 29.923,260.161 28.713,257.625 29.545 M263.651 30.687 C 269.995 34.229,270.279 43.035,264.179 47.085 C 260.347 49.629,254.745 48.092,252.624 43.914 C 251.511 41.719,251.366 41.208,251.338 39.375 C 251.232 32.237,257.944 27.501,263.651 30.687 M259.630 36.220 C 256.997 37.525,257.099 41.292,259.804 42.691 C 260.959 43.289,261.869 43.116,263.124 42.059 C 266.133 39.528,263.119 34.490,259.630 36.220 M262.803 36.874 C 264.228 37.774,264.412 40.062,263.178 41.543 C 261.789 43.208,258.747 42.495,258.356 40.412 C 257.753 37.195,260.212 35.239,262.803 36.874 M335.318 234.138 C 330.665 238.962,328.366 241.448,326.281 243.914 C 320.799 250.394,311.313 258.896,304.931 263.048 C 303.914 263.710,303.012 264.321,302.928 264.406 C 301.008 266.336,291.289 270.347,284.746 271.909 C 281.580 272.664,280.408 272.861,273.498 273.793 C 271.633 274.044,268.929 274.412,267.488 274.610 C 263.815 275.115,231.795 275.560,196.456 275.597 C 162.122 275.632,154.126 275.390,141.757 273.944 C 140.316 273.775,137.681 273.490,135.901 273.310 C 129.903 272.703,128.059 272.483,123.575 271.837 C 118.969 271.174,114.984 270.458,113.097 269.953 C 112.504 269.794,110.909 269.394,109.553 269.063 C 106.832 268.399,103.115 267.302,102.157 266.880 C 101.818 266.730,100.639 266.311,99.538 265.948 C 90.168 262.863,73.598 251.877,63.482 242.044 C 62.042 240.644,60.076 238.854,59.115 238.067 C 58.154 237.280,56.881 236.178,56.287 235.617 C 55.693 235.057,54.908 234.520,54.544 234.425 C 53.774 234.224,54.521 234.987,58.095 238.057 C 60.833 240.408,60.551 240.152,63.213 242.692 C 65.213 244.601,67.944 246.974,69.758 248.382 C 70.086 248.636,71.304 249.649,72.466 250.632 C 74.976 252.755,82.158 257.935,82.592 257.935 C 82.760 257.935,82.897 258.049,82.897 258.189 C 82.897 258.328,83.486 258.752,84.206 259.129 C 84.927 259.507,86.002 260.107,86.595 260.463 C 88.301 261.486,97.263 265.948,97.612 265.948 C 97.785 265.948,98.324 266.155,98.809 266.408 C 99.295 266.661,99.911 266.869,100.180 266.870 C 100.448 266.871,100.757 266.962,100.867 267.071 C 101.186 267.391,104.254 268.392,104.946 268.403 C 105.294 268.408,105.710 268.532,105.871 268.679 C 106.166 268.947,107.906 269.468,110.169 269.966 C 110.847 270.115,112.304 270.464,113.405 270.741 C 114.507 271.018,116.408 271.358,117.630 271.497 C 118.851 271.637,120.029 271.860,120.246 271.994 C 120.463 272.129,121.752 272.344,123.109 272.472 C 124.467 272.601,127.103 272.925,128.968 273.192 C 130.832 273.459,133.814 273.776,135.593 273.896 C 137.373 274.016,139.013 274.233,139.239 274.378 C 139.834 274.762,146.331 275.205,155.162 275.464 C 159.707 275.597,163.307 275.840,163.942 276.057 C 165.520 276.597,227.437 276.586,228.970 276.046 C 229.752 275.771,235.190 275.615,248.844 275.478 C 266.067 275.304,273.345 274.993,274.323 274.388 C 274.528 274.262,275.812 274.047,277.178 273.910 C 280.372 273.590,284.017 272.946,284.311 272.650 C 284.437 272.523,284.899 272.420,285.336 272.421 C 285.774 272.421,286.826 272.201,287.673 271.931 C 288.521 271.661,289.700 271.305,290.293 271.140 C 292.651 270.485,300.822 266.731,301.027 266.209 C 301.084 266.065,301.271 265.948,301.444 265.948 C 301.617 265.948,303.165 265.016,304.885 263.878 C 307.866 261.905,308.313 261.589,309.179 260.852 C 309.385 260.676,310.108 260.127,310.786 259.631 C 311.464 259.135,312.645 258.169,313.410 257.485 C 314.175 256.800,315.413 255.755,316.161 255.162 C 318.266 253.491,323.756 247.926,326.656 244.523 C 328.097 242.832,330.455 240.212,331.895 238.700 C 333.336 237.188,335.219 235.212,336.079 234.308 C 336.976 233.367,337.451 232.666,337.191 232.666 C 336.942 232.666,336.099 233.328,335.318 234.138 M28.351 289.676 C 28.949 290.063,29.276 290.063,29.276 289.676 C 29.276 289.507,28.964 289.370,28.582 289.373 C 28.022 289.377,27.978 289.435,28.351 289.676 M64.869 299.230 C 65.208 299.375,65.693 299.494,65.948 299.494 C 66.239 299.494,66.182 299.397,65.794 299.230 C 65.455 299.084,64.969 298.965,64.715 298.965 C 64.424 298.965,64.481 299.063,64.869 299.230 M333.745 299.307 C 333.744 299.633,334.733 299.585,335.285 299.233 C 335.626 299.016,335.484 298.956,334.746 299.007 C 334.196 299.045,333.745 299.180,333.745 299.307 M73.652 300.770 C 74.255 301.160,74.884 301.160,74.884 300.770 C 74.884 300.601,74.503 300.464,74.037 300.467 C 73.377 300.471,73.292 300.538,73.652 300.770 M325.116 300.770 C 325.116 300.940,325.385 301.079,325.714 301.079 C 326.043 301.079,326.398 300.940,326.502 300.770 C 326.610 300.596,326.351 300.462,325.904 300.462 C 325.470 300.462,325.116 300.601,325.116 300.770 M88.752 303.236 C 89.006 303.400,89.422 303.534,89.676 303.534 C 90.087 303.534,90.087 303.501,89.676 303.236 C 89.422 303.071,89.006 302.937,88.752 302.937 C 88.341 302.937,88.341 302.970,88.752 303.236 M310.324 303.236 C 309.913 303.501,309.913 303.534,310.324 303.534 C 310.578 303.534,310.994 303.400,311.248 303.236 C 311.659 302.970,311.659 302.937,311.248 302.937 C 310.994 302.937,310.578 303.071,310.324 303.236 M101.695 304.769 C 102.236 305.127,103.852 305.191,103.852 304.854 C 103.851 304.727,103.262 304.587,102.542 304.543 C 101.589 304.484,101.359 304.546,101.695 304.769 M296.148 304.854 C 296.148 305.207,298.242 305.129,298.465 304.767 C 298.590 304.565,298.207 304.481,297.405 304.536 C 296.714 304.584,296.149 304.727,296.148 304.854 M109.553 305.701 C 109.445 305.876,109.704 306.009,110.151 306.009 C 110.585 306.009,110.940 305.871,110.940 305.701 C 110.940 305.532,110.671 305.393,110.342 305.393 C 110.013 305.393,109.658 305.532,109.553 305.701 M288.906 305.701 C 289.011 305.871,289.435 306.009,289.849 306.009 C 290.262 306.009,290.601 305.871,290.601 305.701 C 290.601 305.532,290.177 305.393,289.658 305.393 C 289.108 305.393,288.795 305.521,288.906 305.701 M123.267 307.242 C 123.521 307.406,124.284 307.541,124.961 307.541 C 125.870 307.541,126.072 307.462,125.732 307.242 C 125.478 307.078,124.715 306.943,124.037 306.943 C 123.129 306.943,122.926 307.022,123.267 307.242 M274.268 307.242 C 273.928 307.462,274.130 307.541,275.039 307.541 C 275.716 307.541,276.479 307.406,276.733 307.242 C 277.074 307.022,276.871 306.943,275.963 306.943 C 275.285 306.943,274.522 307.078,274.268 307.242 M136.133 308.085 C 137.022 308.148,138.478 308.148,139.368 308.085 C 140.258 308.023,139.530 307.972,137.750 307.972 C 135.971 307.972,135.243 308.023,136.133 308.085 M260.950 308.086 C 261.846 308.148,263.232 308.148,264.032 308.084 C 264.831 308.021,264.099 307.970,262.404 307.971 C 260.709 307.972,260.055 308.023,260.950 308.086 " stroke="none" fill="#746c3c" fill-rule="evenodd"></path></g></svg>